<svg xmlns="http://www.w3.org/2000/svg" preserveAspectRatio="xMidYMid meet"
     version="1.0" viewBox="12.8 9.9 435.6 352.9" zoomAndPan="magnify" style="fill: rgb(231, 223, 216); transform: scale(-1, 1)"
     original_string_length="38899">
    <g id="__id147_syeo4hvrhv">
        <path d="m2462 2225c3-26 1-34-8-31-8 3-11-1-7-10 3-7 10-14 17-14 13-1-24-30-38-30-6 0-5 5 2 12 18 18 15 33-3 18-14-11-14-10-6 13 8 19 6 28-5 38-23 19-35-1-24-41 11-39 6-49-18-34-18 12-42 8-42-6 0-25 54-69 100-81l50-13-36-35c-56-55-82-102-110-204-14-50-30-110-36-132-24-90-35-109-84-154-28-25-70-56-95-68-29-15-37-23-24-23 23 0 85 39 133 84 35 32 77 105 86 147 20 93 58 223 76 258 23 45 112 141 133 142 25 1 83 9 104 14 14 3 32-4 52-21l31-26-22-19c-26-21-18-25 12-7 10 7 23 9 27 5 10-11-14-24-40-23-22 2-70-41-61-55 2-4-3-10-11-13-12-4-14-2-6 11 14 25-25 52-67 45-35-5-65-44-53-72 14-36 40-62 55-57 19 7 46-28 46-60 0-15 5-21 14-17 8 3 19-3 25-15 15-28 14-39-6-44-16-4-16-5 1-6 13-1 17-6 13-21-3-11-1-18 4-14 5 3 9-2 9-10 0-9-4-16-10-16-5 0-10-5-10-11 0-8 5-7 16 2 8 7 14 22 12 34-3 12 1 26 8 32 9 9 13 4 18-22 4-19 6-38 6-41-1-3 6-11 16-18 13-10 14-15 4-21-9-6-11-4-5 6 5 8 4 10 0 6-11-9-16-37-7-36 19 3 32-2 32-12 0-5-5-7-12-3-8 5-9 0-5-17 4-13 7-32 7-42s4-16 8-13c19 11-2-56-21-69-13-9-16-15-8-15s11-7 8-20c-6-22 8-28 16-7 11 25 7-33-4-60-8-22-12-24-19-13-8 12-10 10-10-8s-11-28-45-43c-39-17-67-39-50-39 18 0 104 56 127 83 31 36 36 31 13-14-9-16-13-34-10-39 8-13-14-52-24-45-5 3-23-7-39-23-34-31-52-38-52-20 0 6-7 3-15-8-12-17-12-21 3-33 13-10 14-14 4-18-7-3-21-14-32-25-11-12-20-16-25-9-3 6-3 11 2 11 4 0 1 5-7 11-13 9-12 10 2 5 10-3 20-1 23 5 4 5 12 6 18 2 8-5 8-2-1 9-11 14-16 14-47-1-33-15-50-36-21-25 11 4 14 0 10-20-3-21-1-24 16-21 11 2 20 0 20-6 0-9-14-13-36-10-6 1-18-6-25-16-13-15-12-15 8-5 14 8 24 9 28 2 6-11 0-14-50-25-27-7-28-8-10-15 13-6 15-9 5-9-12-1-12-3-2-10 10-6 3-13-23-25-19-9-33-21-30-27 4-5 2-9-2-9-5 0-18-7-29-16-18-15-18-15 11-10 24 5 27 4 13-4-20-12-25-35-5-25 6 4 3-1-7-9-11-9-26-16-33-16s-13-6-13-13c0-20-21-36-37-30-12 5-12 7-1 14 9 6 7 9-9 9-28 0-32-36-5-43 12-3 11-5-6-6-13 0-21-5-17-11 3-5 13-7 23-3 11 3 8-3-9-18-14-13-24-31-22-39 4-13 3-13-7 0-9 11-13 12-17 2-2-6-9-10-14-6-5 3-9 1-9-5 0-5 6-12 13-14 6-3 2-6-10-6-12-1-23-6-25-12-5-16-48-1-48 17 0 8 6 14 13 14s22 7 33 15c18 14 18 15-5 7-28-10-81-3-81 10 0 5-9 6-20 3-12-4-20-2-20 5 0 6-11 8-25 6-13-3-27 0-30 5-4 5 8 9 24 9 31 0 42 14 19 23-14 6 15 10 49 7 12-1 32 4 45 12 13 7 26 12 31 13 4 0 6 3 5 7-2 3 8 18 21 32 41 43 16 40-27-4-23-22-50-40-60-40-11 0-35-2-53-5-26-4-30-3-14 4 16 8 12 10-25 11-25 1-37 4-27 7 21 5 23 43 2 43-10 0-15 10-15 34 0 19-5 38-11 42-17 10 50 36 74 28 15-5 18-3 12 7-6 11-5 11 4 3 13-12 81 2 81 16 0 8 29 10 49 4 11-4 11-7 0-21-12-14-12-16 1-11 8 2 15 11 15 19 0 12 63 44 71 36 10-10-15-63-32-65-10-2-23-8-29-14-7-6-7-9 0-8 29 6 36 0 25-21-7-11-9-26-7-34 5-12-31-93-52-119-6-7-24-11-41-10-16 1-30-2-30-7s3-9 8-10c50-7 63-4 76 16 8 12 22 30 31 39 11 11 12 16 4 16-7 0-3 10 10 24 12 13 23 36 25 51s9 31 17 36 10 9 5 9-3 7 5 16c10 13 10 17-2 24-11 7-11 12-1 22 6 6 12 20 12 30s7 21 15 24c10 4 13 13 10 25-3 10-1 27 5 38 5 12 15 31 21 43s15 33 19 47 11 35 16 46c6 17 5 18-7 8s-14-1-12 63c1 40-2 76-6 79-5 2-17-17-28-44-18-41-19-49-6-57s13-16 4-49c-9-32-8-42 5-56 8-9 11-19 7-20-15-7-53-61-48-69 3-4-3-14-12-21-9-8-14-9-11-4 4 6 0 18-7 28-8 12-15 14-20 8-3-6-18-12-33-12-24-2-24-2-4-6 12-2 22-8 22-13 0-12-59-60-75-60-7 0-21-3-31-7-13-5-15-3-10 8 4 8-1 4-10-9-16-21-41-32-29-12 3 6-1 10-9 10s-17-4-20-9c-6-10-94-21-112-14-9 3-10 12-4 28 5 13 5 26-1 32-13 13 14 93 52 156 16 26 27 52 24 57-6 10 53 89 118 162 10 11 17 22 14 24-6 6-85-77-107-113-10-16-29-39-44-52-14-14-26-31-26-39 0-12 4-12 20 3 11 10 20 14 20 8 0-5-9-19-20-31s-20-24-20-27-18-30-40-60-38-55-35-55-6-22-20-50c-14-27-28-50-31-50s-2 5 1 10c4 6 9 22 11 37 3 14 12 39 20 55 22 42 3 60-29 30-13-12-27-22-31-22-12 0 5 42 29 75 35 47 40 63 10 30-15-16-32-37-39-45-21-29-68-60-80-53-8 5-8 3 0-8 16-19 11-46-27-154-33-97-43-117-35-70 12 63 15 74 26 95 6 12 9 24 6 27-8 8-56-98-57-126-1-24-2-24-8 4-5 25-8 27-14 12-4-10-11-16-16-12-15 9 17 102 53 160 39 61 65 87 76 80 10-6 61 68 64 93 2 8 13 23 27 33 22 17 23 18 3 13-29-7-85-55-88-74-1-8-25-46-54-85-28-38-59-86-68-105s-22-47-29-62-11-44-8-65c5-35 7-38 36-38 18 1 35-4 40-10 4-6 11-5 18 5 9 13 10 13 6-1-3-9-1-22 3-30 7-10 15-1 30 34 12 26 25 47 29 47 13 0 33-28 27-38-3-5 6-15 19-22 14-7 25-17 25-21 0-9 46-22 82-24 15-1 38-6 50-12 13-6 42-16 65-23 51-16 57-30 70-157 5-54 4-63-11-63-21 0-20-12 4-38 26-27 26-28-10-69-16-18-30-38-30-44 0-12 35-3 68 17 12 8 22 11 22 7 0-5-20-20-45-35-42-26-54-45-38-61 3-4 11-3 17 2 6 4 25 13 43 19 24 8 35 7 50-4 25-20 95-51 133-59 30-7 31-6 21 14-7 12-16 21-21 21-6 0-10 4-10 9 0 12 73 1 82-13 5-6 8-2 8 11s-9 28-19 35c-10 6-17 18-14 25s-2 13-11 13-16 7-16 15c0 24 4 30 18 29 6-1 12 5 12 12 0 16-79 54-111 54-17 0-18 5-12 72 3 40 6 81 7 91 0 10 17 34 37 52s48 49 61 69c14 19 43 50 66 68s68 74 101 123c33 50 76 103 95 118 86 67 158 194 176 310 22 135 7 236-53 366l-25 53 23 44c20 38 22 49 13 86-6 24-15 48-20 54-6 8 0 25 16 48 20 31 26 34 36 21 11-13 10-14-4-9-11 4-16 1-16-10s9-16 27-16c14 0 23 3 20 6-3 4-2 15 3 25 8 14 5 21-10 32-19 13-19 15-3 56 12 31 13 45 5 53-12 12-15 8-27-47-6-25-8-27-16-13-11 19-1 71 11 63 5-3 8 10 7 27-2 30-5 33-36 34-26 0-37 6-48 28-15 28-38 31-38 5-1-23-16-59-25-59-5 0-11 8-13 18-3 9-5 0-6-20 0-21 1-38 4-38 12 0 64 84 59 94-3 6 3 0 14-14 11-13 18-28 16-32-3-4 0-8 6-8s5-12-5-30c-15-29-42-33-31-4 6 15-6 19-18 7-4-5-13-8-19-8s-16-10-23-22c-12-25-26-21-17 5 4 11-5 7-24-10-39-37-48-36-15 2 15 17 28 43 28 58 2 55 4 63 14 57 15-9 12 8-5 31-8 10-15 15-16 9 0-5-2-20-3-32-4-36-11-36-40 2-36 47-60 47-54 0zm88-67c-3-4-15-5-27-2-15 4-20 11-16 22 5 10 3 13-6 8-7-5-10-14-8-21 6-13-17-36-48-50-31-13-62-12-62 3 0 9 8 11 23 8 37-10 78 33 77 79l-1 38 37-39c20-21 34-42 31-46zm166-43c-10-15-19-25-21-23-7 7 7 48 17 48 5 0 6 6 2 13-5 9-4 9 6 0 11-10 10-17-4-38zm-206 15c-14-11-20-20-15-19 6 0 19 6 29 14 35 27 38 16 4-12-18-16-34-31-36-35-2-5-9-8-15-8-8 0-7 4 1 12 22 22 12 32-11 10-41-39-42-23-1 18 21 22 46 40 54 40 10 0 7-7-10-20zm140-30c0-5-4-10-10-10-5 0-10 5-10 10 0 6 5 10 10 10 6 0 10-4 10-10zm-68-163c7-12-1-39-15-48-5-4-18-4-28-2-24 7-37 52-18 64 16 10 51 2 61-14zm104-7c0-11-5-20-10-20s-2-6 8-13c14-11 16-18 9-32-8-13-12-14-18-5-4 7-2 16 5 20 8 5 7 9-5 14-14 5-17 1-13-23 2-17 1-28-4-25-13 8-9 38 8 72 18 38 20 38 20 12zm-56-96c12-32 12-34-1-34-5 0-7 5-4 10 3 6-2 10-12 11-10 0-13 3-5 6 6 2 12 9 12 14 0 6-4 7-10 4-5-3-10-1-10 4 0 21 21 11 30-15zm82-24c-1-13-4-25-6-27-9-10-55-12-61-3-3 5 0 7 9 4 10-4 14 0 13 15-1 12-6 21-12 22-5 0-1 4 10 9 32 14 50 7 47-20zm29-401c-9-22-10-22-10-3-1 11 2 24 6 27 12 12 14 0 4-24zm-861-364c-7-8-17-15-22-15-11 0 14 29 26 30 5 0 3-7-4-15zm393-20c-3-9-8-14-10-11-3 3-2 9 2 15 9 16 15 13 8-4zm57-5c0-5-5-10-11-10-5 0-7 5-4 10 3 6 8 10 11 10 2 0 4-4 4-10zm260 6c0-3-4-8-10-11-5-3-10-1-10 4 0 6 5 11 10 11 6 0 10-2 10-4zm-756-64c-18-37-24-61-20-80 5-18 4-22-3-13-7 11-10 10-14-5-3-10-4-3-3 16 5 51 28 120 38 114 4-3 11 2 14 11 4 9 8 14 10 12s-8-27-22-55zm-47 4c-9-13-22-46-28-73-7-26-19-61-26-78-14-30-14-30-9 15 7 63 45 160 64 160 12 0 12-3-1-24zm142-60c9-10 8-15-4-20-8-3-15-12-15-20 0-12 8-14 33-10 30 5 31 5 13-10-11-9-29-16-40-16-10 0-17-2-14-5 5-6 68-15 103-16 29 0-3-18-35-20-15 0-19-3-10-6 26-10 50-36 50-55 0-10-2-18-4-18s-12-3-22-7c-11-4-15-3-10 5 4 7-4 10-25 10-17-1-34 3-37 9-4 5-23 9-42 7-31-2-33-1-17 10 25 19 21 23-15 19-18-2-27 0-20 3 18 8 15 24-5 24-15 0-15 2-4 9 8 5 20 7 27 4 6-2 15 0 19 6 3 6-1 11-9 11-9 0-16 7-16 15s5 15 10 15c6 0 10 9 10 21s8 23 20 26c11 3 20 9 20 14 0 14 26 11 39-5zm181-276c0-5-2-10-4-10-3 0-8 5-11 10-3 6-1 10 4 10 6 0 11-4 11-10zm57-112c-3-8-6-5-6 6-1 11 2 17 5 13 3-3 4-12 1-19zm0-40c-3-8-6-5-6 6-1 11 2 17 5 13 3-3 4-12 1-19zm31-63c-3-3-9 2-12 12-6 14-5 15 5 6 7-7 10-15 7-18zm-7-130c1-16-17-17-30-2-9 12-7 14 9 13 11 0 21-5 21-11zm-56-5c3-5 1-10-4-10-6 0-11 5-11 10 0 6 2 10 4 10 3 0 8-4 11-10zm170-20c3-5 1-10-4-10-6 0-11 5-11 10 0 6 2 10 4 10 3 0 8-4 11-10zm-70-30c3-6-1-7-9-4-18 7-21 14-7 14 6 0 13-4 16-10z"
              transform="matrix(.16027 0 0 -.16027 0 374)" style="fill: inherit;"/>
        <path d="m2680 1815c0-8 4-15 8-15 5 0 9 7 9 15s-4 15-9 15c-4 0-8-7-8-15z"
              transform="matrix(.16027 0 0 -.16027 0 374)" style="fill: inherit;"/>
        <path d="m1862 861c2-13 9-26 16-27s8 0 2 3c-16 8-12 36 5 29 9-3 15 0 15 9 0 8-9 13-20 12-16-1-20-7-18-26z"
              transform="matrix(.16027 0 0 -.16027 0 374)" style="fill: inherit;"/>
        <path d="m1868 783c6-2 18-2 25 0 6 3 1 5-13 5s-19-2-12-5z" transform="matrix(.16027 0 0 -.16027 0 374)"
              style="fill: inherit;"/>
        <path d="m1910 757c14-6 27-14 30-17 10-10 50-11 50-1 0 6-6 8-14 5-7-3-20 1-27 8-8 7-25 14-39 15l-25 2 25-12z"
              transform="matrix(.16027 0 0 -.16027 0 374)" style="fill: inherit;"/>
        <path d="m2602 2051c-8-5-12-21-10-37 2-22 8-29 25-30 30-2 44 17 35 47-7 25-28 34-50 20z"
              transform="matrix(.16027 0 0 -.16027 0 374)" style="fill: inherit;"/>
        <path d="m932 1987c-7-8-22-13-32-10-56 15-224-56-297-124-7-6-22-15-33-18s-20-9-20-13-25-34-55-67c-84-92-104-142-131-325-6-36 21-89 32-63 3 6 14 21 24 33 19 22 91 164 104 205 4 11 22 31 40 45 19 14 42 38 53 53 19 30 93 90 101 82 6-6-45-83-79-118-15-15-32-46-38-70-7-23-14-49-17-57-5-13-4-13 5 0 6 8 15 31 21 51 5 20 19 47 31 60s40 49 62 79 46 59 54 63c7 4 13 12 13 18 0 12-50 0-70-17-8-7-27-16-43-19-17-5-33-19-42-40-9-17-36-51-60-73-25-23-45-48-45-57 0-8-5-15-10-15-6 0-9-3-9-7 4-23-3-44-20-60-10-10-22-29-26-43s-18-40-31-59c-21-31-23-32-33-13-8 14-6 39 5 92 16 78 26 102 55 134 14 14 16 22 7 27-7 5-2 15 15 32 15 13 27 29 27 35 0 10 31 37 94 82 20 14 36 30 36 35 2 34 219 127 275 119 76-12 124-14 128-7 14 22 211-13 241-42 8-8 19-15 25-15s11-4 11-10c0-13 6-13-86 10-75 19-265 39-254 27 3-3 41-9 84-12s87-10 98-16 22-8 25-5c10 10 179-57 216-86 21-17 35-23 31-14-3 8-28 29-55 46-32 20-49 37-49 50 0 11 2 20 4 20 3 0 32-16 66-36 33-19 64-32 69-29 6 3 22-12 37-32 38-52 48-62 41-40-4 9-3 17 1 17 12 0 72-64 72-77 0-6 7-16 15-23s15-19 15-27 11-29 25-47c46-61 73-160 48-184-14-14-16-14-25 1-5 10-13 15-17 13-4-3-6 8-3 23 2 16-1 32-7 36-8 5-10-2-6-22 3-15 2-22-1-15-5 10-9 10-20 1-12-9-11-15 6-36 21-27 25-43 12-43-5 0-19 23-33 52-13 28-35 63-49 78-30 32-28 50 6 50 14 0 23-4 20-9-3-4 1-17 9-27 17-22 19-38 5-29-5 3-7 0-4-8 6-16 34-19 34-3 0 6-7 20-15 30-19 26-19 42 0 26 8-7 16-10 16-6 5 25 3 33-12 51-10 11-19 36-21 55-2 26-7 35-20 34-11-1-18 5-18 16 0 20-26 34-42 23-6-3-8-1-4 5 11 18-27 24-148 23-33-1-69 16-61 29 3 4-18 14-46 20-32 8-53 19-56 29-3 13-17 16-66 16-34 0-69-5-77-9-8-5-12-6-8-1 4 4 17 13 30 19 33 17 35 36 2 30-15-3-36-10-47-15-11-6-54-13-95-16-42-2-84-9-93-14-10-5-27-9-38-9s-22-4-25-9c-7-10 53-3 69 8 9 6 51 7 154 2 49-2 32-11-29-17-69-7-128-31-180-76-52-46-44-51 11-7 44 34 133 69 179 69 50 0 34-17-22-24-85-11-152-49-200-114-23-32-54-68-68-82-15-14-31-34-37-45-7-11-15-17-19-13s5 31 19 60l27 53-27-33c-34-43-75-157-67-188 4-13 2-24-4-24-12 0-25 47-17 60 4 6 1 10-4 10-15 0-14-43 1-75 14-30 32-28 37 6 1 13 11 35 21 49 9 14 20 37 23 52 4 14 26 46 49 70 24 24 56 64 73 87 16 24 45 54 65 66 60 37 206 65 237 45 14-9 14-10 2-7-31 10-189-37-189-55 0-5-6-8-14-8-11 0-79-68-104-105-10-14-15-65-6-65 4 0 21 10 38 23 72 53 91 60 44 15-66-61-60-70 7-13 30 26 55 52 55 57s4 7 9 3c6-3 26 4 45 15 20 11 55 22 77 25 37 5 39 4 25-11-9-8-21-12-27-8-6 3-14 3-18-2-3-5-27-20-53-33s-69-45-95-72c-26-26-52-45-57-42-6 4-8 3-4-2 4-4-5-24-20-44-33-42-72-123-72-148 0-10 15 12 33 48 38 77 58 104 135 182 63 65 90 82 145 92 20 4 37 11 37 16s5 9 11 9c5 0 8-4 5-9-3-4 11-7 32-4 36 3 73-10 61-22-7-6-36-13-89-21-70-11-132-44-229-124-25-21-40-43-66-99-23-48-78-120-92-121-6 0-14 15-16 33l-4 32-1-37c-1-20 3-40 8-43 14-9 110 90 110 113 0 25 40 86 78 117 17 15 32 24 32 20 0-3 10 4 23 15 26 25 82 57 73 41-10-16-2-14 44 10 44 23 147 38 135 20-3-6 2-11 11-11 40 0 2-12-47-14-30-2-74-13-99-24-43-19-122-88-141-124-5-9 14 6 42 33 75 73 164 111 218 94 33-10 24-23-14-20-50 3-125-24-158-57-16-15-32-28-35-28-4 0-18-17-31-38-13-20-32-48-41-62s-20-37-24-52c-9-37-26-35-26 3 0 78 21 122 93 191 38 38 64 68 58 68-21 0-122-110-142-154-19-43-25-121-10-145 7-10 12-8 25 10 9 13 16 28 17 34 1 16 93 138 107 143 7 2 1-13-13-33-42-63-31-86 24-53 20 12 38 25 41 30 8 10 92 39 98 34 5-6-50-87-81-116-56-54-237-101-395-104-70-1-91 2-135 24-58 28-136 80-156 104-24 29-146 111-166 112-11 0-34 8-52 17-20 11-34 13-38 7-3-6-1-10 4-10 22 0 26-2 43-17 9-8 22-12 28-8 12 7 126-63 175-108 30-28 93-72 169-117 36-22 37-24 18-31-20-8-22-17-13-71 0-4 18-16 39-27 41-21 105-35 96-20-3 5-16 9-30 9-33 0-81 25-94 50-7 14-7 20 0 20 5 0 10 5 10 11 0 30 32 42 111 42 85-1 216 24 299 57 61 24 90 25 39 2-32-15-43-42-18-42 6 0 7 5 4 10-3 6 2 13 12 17s36 18 58 31c22 14 51 26 65 28 14 1 28 2 33 3 4 1 7 6 7 12s-7 8-17 5c-13-5-11 0 6 18 14 15 20 26 14 26s-13-4-15-8c-5-14-109-84-115-78-3 3 2 8 11 12 24 9 95 121 129 204 8 19 25 60 37 90 31 75 62 121 101 152 29 21 36 23 47 11 7-7 17-11 23-8 15 10 10-15-6-31-8-8-17-15-20-14-23 1-26-2-19-22 9-33 35-59 53-56 9 2 24-7 35-20 10-13 25-21 32-18 9 4 14-2 14-17 0-16-3-18-9-9-5 9-10 1-15-26-3-22-13-45-21-52-9-8-21-23-27-34l-11-21 23 20 24 20-23-32c-12-18-32-39-43-48-12-8-19-17-16-20s12 0 19 7c8 7 23 20 34 28 19 15 19 15 0-12-11-15-39-37-62-49-24-11-43-22-43-24 0-7 62 15 77 27 41 34 81 75 86 88 3 8 6-11 6-42 1-32-4-60-10-64-8-4-9 4-5 27 4 25 4 29-3 14-14-30-13-52 5-70 12-12 14-25 9-52-8-45-31-82-38-61-2 7-3 5-1-6 1-10-4-29-13-42-8-13-11-24-5-24s13 6 15 13c4 8 6 7 6-3 1-9-5-22-11-29-11-11-10-12 2-5 12 6 11 2-3-19-10-15-13-27-7-27s8-5 5-10c-4-6-10-8-15-5s-16-8-25-24c-18-35-59-64-48-34 4 13-2 11-23-8-16-15-41-34-56-44-16-9-28-22-28-27s4-7 8-4c5 3 9-1 9-8s-13-13-31-13c-17-1-44-5-61-8-29-7-29-7-10 8 11 8 17 19 13 23-5 4-17-1-28-11-18-16-18-19-4-29 14-11 14-13 0-25-8-7-20-10-26-6-5 3-15 3-21-1-8-5-8-9 1-14 8-5-2-14-29-26-22-10-39-19-37-22 6-6 93 34 100 47 4 6 12 11 18 11s1-11-12-25c-23-25-16-37 8-13 7 7 12 8 12 2s-12-16-26-22c-14-7-23-8-19-2 3 5-1 10-9 10s-18-5-22-12c-5-7-3-8 7-3 12 7 12 6 1-7-11-14-11-17 2-20 11-2 8-7-10-15-22-10-25-10-20 3 6 16-2 18-23 5-7-5-10-14-7-20 4-6 0-11-8-11-9 0-16-4-16-10 0-5-18-19-40-30s-40-18-40-15c0 2 14 12 31 20 36 19 33 30-5 16-16-7-26-7-26-1 0 11 36 31 53 29 27-3 40 3 18 10-29 8-83-15-101-43-10-16-9-18 2-13 8 3 15-1 15-9 0-7-4-11-8-8-14 8-59-8-53-18 4-6 1-8-7-6-8 3-13 11-11 18 2 8-4 11-18 7-22-6-28 8-7 17 9 5 9 7 0 12-7 3-16 6-20 6-5 1-16 14-26 30-9 16-29 33-43 38-14 6-23 14-19 19 3 5 0 13-6 17-8 4-9 3-5-4s5-12 2-12c-6 0-79 42-86 50-3 3-11 6-19 8-12 3-12 0-1-12 7-9 19-16 26-16 8 0 13-5 11-12-1-7 3-12 8-13 6 0 16-4 24-9 10-7 10-10 1-16-7-4-10-15-7-25 4-9 11-13 17-10 5 3 10-1 10-11 0-13-3-14-13-5-8 6-17 8-20 4-4-3-7 1-7 10 0 10-8 17-17 17-22 1-47 20-56 43-3 9-11 17-17 17-5 0-10 9-10 19 0 12-9 21-26 25-15 4-28 5-30 3s12-29 32-59c29-48 45-62 102-89 113-55 126-77 137-234 4-44 8-93 10-108 4-29-8-45-58-79-18-13-23-23-20-42 5-25 5-25 32-6 48 34 67 34 87 0 16-27 27-35 37-27 2 1 12-5 22-13 16-14 17-12 10 19s-6 32 14 22c12-7 18-17 15-26-7-17-8-17 288-19 128-1 194 2 187 9-8 8-71 10-254 8-51-1-116 2-135 6-3 1-11 10-18 22-12 18-11 19 5 11 18-9 71-7 81 2 3 4-10 6-28 6-21 0-43 8-58 22-13 13-29 23-35 23-7 1-31 6-54 13-41 12-41 12-53 80-6 37-10 92-8 122 2 45 7 57 25 66 13 6 31 17 40 25 24 20 73 40 83 34 9-5 61-134 86-212 19-63 14-80-26-94-31-11-36-24-21-48 7-11 10-10 18 3 5 9 29 20 53 24 36 6 52 4 80-12 19-11 37-24 38-28 2-4 12-8 23-8 10 0 18-5 17-12-2-6 8-12 22-12 21 0 24 4 21 24-1 14-8 28-13 31-14 9-1 29 18 29 18 0 18 34-1 50-8 6-34 14-57 17-72 9-93 26-121 95-13 35-28 83-32 107-7 42-6 45 36 87 24 23 55 56 69 73s49 43 79 58c61 32 142 106 165 152 15 29 28 41 25 24-3-20 2-43 9-43 5 0 18 19 31 43 12 23 20 31 16 17-7-24-9-78-4-112 3-19 19-14 19 5 0 15 33 81 51 103 6 8 9 17 7 20-9 8-48-47-48-67 0-10-4-21-10-24-16-10-11 26 13 92 37 101 155 227 271 287 67 35 77 38 93 25s17-12 5 2c-11 14-9 18 13 23 36 9 31 21-10 23-20 2-35-2-35-8s9-8 23-4c17 5 19 4 7-4-8-6-23-8-34-5-10 4-16 2-13-3s-7-9-21-8c-17 0-26-5-24-13 1-8-2-11-8-7-10 6-100-50-100-64 0-4-43-50-95-103s-94-102-92-110c2-7 2-9-1-4s-13-2-23-15c-16-20-18-21-12-4 3 11 13 31 22 44 10 16 12 26 5 28-22 7-1 51 50 104 28 30 64 60 79 68 24 13 37 31 21 31-13 0-71-47-112-90-24-25-40-39-36-31 3 7 6 35 5 62 0 35 3 49 13 49 7 0 19 7 26 15 8 9 9 15 2 15-6 0-14-4-17-10-3-5-10-10-16-10-14 0-11 20 7 38 15 15 17 15 29-1 7-9 18-17 26-17 10-1 9-4-3-11-10-5-18-15-18-22s-9-18-20-25-20-18-20-24c0-7 15 2 33 19 17 17 42 34 55 38 14 4 21 12 18 21-3 7 9 24 27 39 33 26 25 36-9 10-41-31-62-8-37 44 18 36 76 70 120 71 54 0 73-4 73-17 0-7 6-14 13-14 6-1 26-3 42-5 33-5 105 14 105 28 0 4 3 7 8 6 16-4 122 33 122 44 0 7-4 7-12 0-7-5-29-13-48-17s-39-10-45-13c-5-4-14-7-20-8-5-1-23-8-40-15-42-17-46-17-87 3-21 10-44 18-51 18-16 0-25 21-53 113-17 57-100 213-133 251-38 44-164 137-177 132-8-3-42 9-77 26-34 18-73 33-87 34-37 1-205 26-266 39-21 5-34 2-42-8zm288-193c25-10 56-28 69-41s30-23 37-23c8 0 14-4 14-10 0-9-7-11-27-9-4 0-10-7-13-16-5-14-12-12-50 17-25 19-51 46-58 62-8 15-16 26-18 23-8-8 14-52 40-80 34-37 33-41-6-21-32 17-32 16-18-1 8-11 10-16 4-12-6 3-25 2-43-3-19-5-29-5-26 1 4 5-3 9-15 9s-19-4-15-9c3-6-16-13-42-16-27-4-57-9-68-13-11-3-22-7-25-7-45-13-163-84-182-110-12-16-9 14 3 36 10 19 22 35 59 78 22 26 117 69 174 80l49 9-29-24c-16-13-33-23-38-24-15 0-138-62-133-67 3-2 29 8 58 22 83 42 146 58 203 50l51-6-22 23c-12 13-24 39-28 59-6 30-3 39 11 47 11 6 23 7 29 2 5-4 30-16 55-26zm-143 20c-3-3-12-4-19-1-8 3-5 6 6 6 11 1 17-2 13-5zm-7-30c0-2-9-4-20-4s-20 4-20 9 9 7 20 4 20-7 20-9zm195-124c-5-8-11-8-17-2s-7 16-3 22c5 8 11 8 17 2s7-16 3-22zm-35 10c0-5-2-10-4-10-3 0-8 5-11 10-3 6-1 10 4 10 6 0 11-4 11-10zm241-21c-17-17-31-34-31-38 0-19 29-43 53-43 32 0 34-4 6-18-16-9-26-8-45 5-13 8-24 22-24 31 0 8-7 25-15 38-17 26-17 25 55 46 14 4 26 8 28 9 2 0-10-13-27-30zm98 0c6 10 10 9 14-2s-3-18-24-22c-17-4-33-13-36-21s-12-14-20-14c-11 0-8 6 8 19 21 17 22 22 11 41-13 21-12 21 13 4 21-14 28-15 34-5zm-369-1c0-4-3-7-7-6-5 0-16-2-26-7-10-4-21-5-24-1-4 3 2 7 13 8 10 0-1 4-26 8l-45 7h58c31 0 57-4 57-9zm206-33c10-26-6-38-27-19-10 9-16 21-13 25 8 14 34 10 40-6zm130-97c4-6 2-14-5-16-9-3-9-7 0-18 6-8 16-14 21-14 6 0 4 7-3 17-11 13-11 15-1 12 7-2 22-20 34-39 18-32 18-33 1-11-17 20-21 21-26 7-4-9-2-16 3-16 6 0 10-5 10-10 0-7-7-7-21 0-11 6-25 9-32 7-7-3-1-9 13-15 14-5 35-20 47-33l22-24-50 3c-31 3-49 0-49-7 0-6 12-11 28-11 39 0 51-11 41-37-8-23-29-32-29-12 0 5-5 7-11 3-8-5-8-9 1-14 9-6 7-11-8-19-11-6-24-11-27-11-5 0-1 252 4 268 3 7 31 0 37-10zm-906-45c-11-17-11-17-6 0 3 10 6 24 7 30 0 9 2 9 5 0 3-7 0-20-6-30zm847-15c-3-8-6-5-6 6-1 11 2 17 5 13 3-3 4-12 1-19zm-316-30c-8-22-24-32-69-43-7-2-37-19-66-39-30-20-57-36-60-36-9 0 6 34 26 56 10 12 18 25 17 30-4 21 2 32 19 37 9 2 26 8 37 12 11 3 8-1-7-10-16-8-28-18-28-20 0-6 51 14 65 25 9 7 65 18 73 14 1-1-2-12-7-26zm302-23c-3-9-8-14-10-11-3 3-2 9 2 15 9 16 15 13 8-4zm-56-483c-10-10-14-22-10-27 5-4 2-5-5-1-11 6-10 12 4 27 9 10 19 19 22 19s-2-8-11-18zm-47-56c0-8-7-17-16-20-8-3-12-10-9-16 4-6-1-7-11-3-11 4-15 2-11-4 6-10-11-23-40-29-18-3-16 13 3 24 8 5 16 17 18 27s9 21 16 23c7 3 10 0 6-7-4-6-2-11 4-11s13 7 16 15c8 19 24 20 24 1zm-278-273c-7-3-18-10-25-17-13-13-67-30-67-21 0 8 94 52 100 47 3-3-1-7-8-9zm-79-83c4-17 3-19-9-9-8 6-14 18-14 26 0 20 16 8 23-17zm-242-37c0-5 2-20 4-35s0-30-5-33c-4-3-10 13-12 35s0 40 4 40c5 0 8-3 9-7zm289-83c0-5-5-10-11-10-5 0-7 5-4 10 3 6 8 10 11 10 2 0 4-4 4-10zm-283-33c2-17 1-19-7-7-11 17-14 47-3 36 4-3 8-17 10-29zm323-93c0-17-16-19-17-1-1 6-4 28-8 47l-6 35 15-34c9-18 16-40 16-47zm-313-39c3-18-1-25-13-25-11 0-14 5-10 16 3 9 6 23 6 31 0 24 14 6 17-22zm156-102c-7-2-19-2-25 0-7 3-2 5 12 5s19-2 13-5z"
              transform="matrix(.16027 0 0 -.16027 0 374)" style="fill: inherit;"/>
        <path d="m860 1908c-19-6-30-12-24-15 7-2 27 3 45 11 39 17 29 19-21 4z"
              transform="matrix(.16027 0 0 -.16027 0 374)" style="fill: inherit;"/>
        <path d="m734 1862c-100-38-128-59-204-147-14-16 4-3 40 28 63 57 186 127 221 127 10 0 21 5 24 10 9 14-2 12-81-18z"
              transform="matrix(.16027 0 0 -.16027 0 374)" style="fill: inherit;"/>
        <path d="m2560 1718c0-51-36-133-81-182-25-28-46-59-46-68 0-22 11-23 27-3 7 9 19 14 26 11 31-12 135 145 134 203-1 9-8-4-16-29-9-25-22-52-30-60-13-13-14-13-8 5 4 11-5 3-20-19-28-40-31-43-81-86-18-16-13-6 14 25 24 28 54 73 66 100 27 61 40 125 25 125-5 0-10-10-10-22z"
              transform="matrix(.16027 0 0 -.16027 0 374)" style="fill: inherit;"/>
        <path d="m719 1663-24-28 28 24c25 23 32 31 24 31-2 0-14-12-28-27z" transform="matrix(.16027 0 0 -.16027 0 374)"
              style="fill: inherit;"/>
        <path d="m483 1653c-26-38-69-140-77-183-7-41-2-31 44 85 18 44 38 90 46 103 21 32 9 27-13-5z"
              transform="matrix(.16027 0 0 -.16027 0 374)" style="fill: inherit;"/>
        <path d="m2494 1646c-5-6-23-35-40-63-31-56-56-75-29-22 26 50 11 43-24-11-33-50-51-68-31-29 7 11 9 23 7 26-3 2-11-5-17-17-17-31-100-140-107-140-3 0 1 8 10 18 10 10 17 22 17 26 0 3 12 24 26 46 15 22 25 43 22 46s-22-21-42-53c-36-58-80-113-91-113-3 0-5 8-5 18-1 11-6 7-17-13-37-72-75-124-87-119-16 6-26-7-62-76-15-30-30-57-33-60-4-3-8-16-9-29-2-14-11-35-19-48-9-13-13-27-9-31s12 1 17 11c6 9 22 17 37 17 15 1 41 7 57 15 17 8 21 13 10 10-11-2-36-6-57-9l-36-6 25 47c30 57 52 89 58 86 13-7 15-1 4 18-8 15-8 19 0 15 11-7 58 37 88 82 17 25 128 112 142 112 9 0 54 45 86 85 16 20 16 20 10-2-4-13-3-23 2-23 13 0 58 72 55 88-2 8 1 12 5 9 5-3 10 3 10 14 1 10 12 33 23 50 22 30 25 48 4 25zm-304-296c0-5-5-10-11-10-5 0-7 5-4 10 3 6 8 10 11 10 2 0 4-4 4-10z"
              transform="matrix(.16027 0 0 -.16027 0 374)" style="fill: inherit;"/>
        <path d="m2672 1570c0-14 2-19 5-12 2 6 2 18 0 25-3 6-5 1-5-13z" transform="matrix(.16027 0 0 -.16027 0 374)"
              style="fill: inherit;"/>
        <path d="m566 1505c-3-8-1-15 4-15 6 0 10 7 10 15s-2 15-4 15-6-7-10-15z"
              transform="matrix(.16027 0 0 -.16027 0 374)" style="fill: inherit;"/>
        <path d="m738 1436c-21-30-38-63-38-73s8-1 20 22c11 22 31 52 45 67 26 28 31 38 18 38-5 0-25-25-45-54z"
              transform="matrix(.16027 0 0 -.16027 0 374)" style="fill: inherit;"/>
        <path d="m2663 1461c4-27 27-42 27-18 0 9 3 22 6 31 4 11 0 14-15 13-16-1-20-7-18-26z"
              transform="matrix(.16027 0 0 -.16027 0 374)" style="fill: inherit;"/>
        <path d="m1377 1393c-32-53-44-53-22 0 23 55 10 45-20-15-24-47-88-118-108-118-4 0 13 25 38 55 61 75 57 79-9 8-30-32-57-55-61-51s4 19 18 34c26 28 82 124 73 124-3 0-15-18-26-40-12-23-37-59-57-80-19-22-30-40-23-40 9 0 8-6-4-19-15-16-15-19-2-24 9-4 22 0 30 8 20 20 37 19 29-2-6-16-5-16 11-4 13 11 14 16 4 22-9 6-9 9-1 9 6 0 31 19 54 43 23 23 38 35 34 27-8-13-6-13 8-2 18 15 71 102 65 107-2 2-16-17-31-42z"
              transform="matrix(.16027 0 0 -.16027 0 374)" style="fill: inherit;"/>
        <path d="m80 1410c0-5 5-10 10-10 6 0 10 5 10 10 0 6-4 10-10 10-5 0-10-4-10-10z"
              transform="matrix(.16027 0 0 -.16027 0 374)" style="fill: inherit;"/>
        <path d="m2376 1394c-10-25 1-29 14-5 6 12 7 21 1 21-5 0-12-7-15-16z"
              transform="matrix(.16027 0 0 -.16027 0 374)" style="fill: inherit;"/>
        <path d="m80 1374c0-13 62-94 72-94 5 0 8-6 5-14-3-7-1-18 5-24s12-29 13-51c1-23 8-48 15-56 20-24 24-10 6 18-26 39-3 50 64 27l55-19-40-3c-36-3-37-4-13-9 35-8 71 15 48 30-8 5-18 7-22 4-5-2-16 1-25 9-9 7-19 12-22 11-3 0-18 6-33 15-33 19-37 42-8 42 11 0 20 5 20 11s-9 9-19 6c-24-6-61 18-61 39 0 9 5 13 13 9 6-4 1 3-13 14-14 12-30 25-37 31-14 11-23 13-23 4z"
              transform="matrix(.16027 0 0 -.16027 0 374)" style="fill: inherit;"/>
        <path d="m218 1350c12-11 24-20 28-20s-1 9-11 20-23 20-28 20c-6 0-1-9 11-20z"
              transform="matrix(.16027 0 0 -.16027 0 374)" style="fill: inherit;"/>
        <path d="m2670 1340c0-5 5-10 10-10 6 0 10 5 10 10 0 6-4 10-10 10-5 0-10-4-10-10z"
              transform="matrix(.16027 0 0 -.16027 0 374)" style="fill: inherit;"/>
        <path d="m1810 1330c-12-8-9-10 13-10 15 0 27 5 27 10 0 13-20 13-40 0z"
              transform="matrix(.16027 0 0 -.16027 0 374)" style="fill: inherit;"/>
        <path d="m1864 1328c-3-4 2-8 11-8s14-4 10-9c-9-15 8-19 34-10 19 8 22 12 12 22-14 14-60 17-67 5z"
              transform="matrix(.16027 0 0 -.16027 0 374)" style="fill: inherit;"/>
        <path d="m1643 1244-28-26 33 22c29 20 39 30 28 30-3 0-18-12-33-26z" transform="matrix(.16027 0 0 -.16027 0 374)"
              style="fill: inherit;"/>
        <path d="m2696 1232c-2-4-1-14 3-21 6-10 10-9 14 3 6 16-8 32-17 18z" transform="matrix(.16027 0 0 -.16027 0 374)"
              style="fill: inherit;"/>
        <path d="m1457 1207c-4-10-7-26-7-35 1-15 2-15 11 1 6 10 9 25 7 35-3 16-4 15-11-1z"
              transform="matrix(.16027 0 0 -.16027 0 374)" style="fill: inherit;"/>
        <path d="m2630 1190c-13-8-13-10 2-10 9 0 20 5 23 10 8 13-5 13-25 0z"
              transform="matrix(.16027 0 0 -.16027 0 374)" style="fill: inherit;"/>
        <path d="m1169 1187c-3-18-6-25-27-64-12-23-22-50-23-60 0-16-1-16-8 1-5 14-10 16-15 8-4-7-5-16-2-21 7-10-27-41-62-58l-27-12 34 2c50 3 48-16-6-46-38-20-52-23-67-15-16 9-18 8-13-5 7-19-23-28-48-14-10 5-55 10-98 11-49 1-82 5-84 12-5 15 86 32 142 27 30-3 45-1 45 7 0 6-4 9-8 6-5-3-22-2-38 3-17 4-50 3-79-4-28-6-56-10-63-7-7 2-12-2-12-9 0-17-31-38-55-38-18 0-18 1 3 9 12 6 22 18 22 30 0 11 6 20 14 20s17 3 19 8c3 4-27 7-66 7-40 0-85 4-102 9-21 6-27 5-20-2 12-13 56-23 107-25 36-1 44-17 8-17-10 0-20-7-24-15-3-8-17-15-31-15-15 0-24 4-20 9 5 9-5 14-57 27-22 5-22 4-4-10 10-9 22-13 27-11 4 3 10 2 13-3 3-4-19-8-47-9-38 0-45 2-27 8 18 5 20 7 7 8-11 1-30-8-44-19-19-15-30-17-44-9-10 5-19 7-19 3 0-3-11 1-25 10-30 20-36 20-29 1 7-18-5-19-27-2-25 20-31 46-9 44 10-1 16-5 14-9-3-4 16-8 43-7 35 0 42 3 28 8-11 5-23 7-27 5-4-3-9 0-13 6-3 5-15 10-26 10-10 0-19 7-19 15s4 14 9 12c5-1 11 2 13 8 1 5-10 14-27 20-32 11-75 43-75 57 0 4 21-4 46-17 47-25 111-34 99-15-3 6-13 10-21 10s-31 7-52 16c-20 10-41 18-47 20-5 1-18 5-28 9-30 13-20-31 15-60 27-23 34-37 38-78 4-45 10-54 39-74 21-15 42-21 55-17 15 4 17 3 8-4-11-7-8-14 12-30 14-11 26-25 26-31s7-11 16-11c11 0 15-6 11-20-3-13 0-20 9-20 10 0 11 6 4 25-5 14-8 25-7 26 22 7 47 7 47-1 0-6 5-10 11-10 7 0 17-7 23-16 11-14 14-13 36 3 35 26 97 53 104 45 7-7 16-8 111-19 39-4 97-6 131-3l61 5-31-30c-17-17-35-29-39-27-5 3-3-6 4-19 11-21 11-23-4-11-13 11-16 10-22-7-3-11-15-23-26-26-10-4-19-10-19-15 0-14 18-21 25-10 10 16 35 12 29-5-4-8-10-12-15-9s-9 0-9-7 9-9 23-5c12 3 28 6 35 6s12 7 10 16c-3 19 30 28 48 13 7-6 17-1 30 14 10 12 12 17 5 10-14-12-41-7-41 7 0 5 9 12 20 15s20 12 20 20c0 7 6 16 13 18 8 4 7 6-3 7-8 0 1 9 20 20 22 12 28 19 18 20-26 0-22 20 5 21 12 1 26 1 30 0 5-1 6 8 2 19-5 16-2 23 14 27 17 4 19 8 10 19-8 10-5 15 15 20 21 5 23 8 13 25-9 15-7 27 11 64 12 25 22 62 22 82s8 45 17 55c13 14 14 21 5 30-7 7-13 9-13 5zm-378-291c84-6 86-6 64-15-11-5-45-6-75-3-30 2-65 5-77 5-24 1-21 17 3 17 10 0 12 5 8 13-6 9-5 9 8-1 8-6 39-14 69-16zm-224 1c3-6 1-7-5-3-7 4-12 3-12-3 0-5 6-12 13-14 12-6-20-11-38-7-5 1-26 4-45 6l-35 3 35-14c26-10 30-14 14-14-12-1-37-4-55-7-26-4-30-3-19 5 16 11 15 12-29 15-8 1-16 7-19 14-2 7 0 12 5 11 25-4 63 2 58 10-3 6 22 9 60 9 36-1 68-5 72-11zm453-29c0-4-3-8-7-9-5 0-17-3-28-5s-68-7-128-10c-111-6-201 1-192 16 5 8 46 7 141-3 23-3 52 1 65 7 26 14 149 17 149 4zm-440-17c0-11-49-21-55-10-3 4 7 10 22 12 16 2 29 5 31 6 1 0 2-3 2-8zm375-51c-3-5-12-10-18-10-7 0-6 4 3 10 19 12 23 12 15 0z"
              transform="matrix(.16027 0 0 -.16027 0 374)" style="fill: inherit;"/>
        <path d="m515 890c-3-5 1-10 10-10s13 5 10 10c-3 6-8 10-10 10s-7-4-10-10z"
              transform="matrix(.16027 0 0 -.16027 0 374)" style="fill: inherit;"/>
        <path d="m1931 1174c-18-13-20-18-10-25 11-6 8-14-10-33-32-34-21-45 11-13s45 62 23 53c-20-7-19 4 3 20 25 19 11 17-17-2z"
              transform="matrix(.16027 0 0 -.16027 0 374)" style="fill: inherit;"/>
        <path d="m1630 1149c0-5 5-7 10-4 6 3 10 8 10 11 0 2-4 4-10 4-5 0-10-5-10-11z"
              transform="matrix(.16027 0 0 -.16027 0 374)" style="fill: inherit;"/>
        <path d="m2075 1139c-16-17-17-19-2-19 10 0 17 4 17 9s10 11 23 14l22 6-21-17c-12-9-30-22-40-29-18-12-18-12 1-6 11 3 32 14 46 24s28 16 31 13c3-2 10 1 16 8 19 23-72 21-93-3z"
              transform="matrix(.16027 0 0 -.16027 0 374)" style="fill: inherit;"/>
        <path d="m325 1140c3-5 14-10 23-10 15 0 15 2 2 10-20 13-33 13-25 0z"
              transform="matrix(.16027 0 0 -.16027 0 374)" style="fill: inherit;"/>
        <path d="m2292 1139c-13-5-28-7-32-4-5 3-11 1-14-4-10-15 33-24 49-11 8 7 15 9 15 5s6-2 13 4c8 6 18 7 22 3 5-4 5-1 1 6-8 14-22 14-54 1z"
              transform="matrix(.16027 0 0 -.16027 0 374)" style="fill: inherit;"/>
        <path d="m2125 1105c-47-22-48-24-18-22 18 1 30 3 27 6s10 13 28 23c49 25 21 21-37-7z"
              transform="matrix(.16027 0 0 -.16027 0 374)" style="fill: inherit;"/>
        <path d="m2535 1120c-3-5-1-10 4-10 6 0 11 5 11 10 0 6-2 10-4 10-3 0-8-4-11-10z"
              transform="matrix(.16027 0 0 -.16027 0 374)" style="fill: inherit;"/>
        <path d="m640 1116c0-2 7-6 15-10 8-3 15-1 15 4 0 6-7 10-15 10s-15-2-15-4z"
              transform="matrix(.16027 0 0 -.16027 0 374)" style="fill: inherit;"/>
        <path d="m2025 1100c3-5 8-10 11-10 2 0 4 5 4 10 0 6-5 10-11 10-5 0-7-4-4-10z"
              transform="matrix(.16027 0 0 -.16027 0 374)" style="fill: inherit;"/>
        <path d="m2203 1083c-36-18-44-33-15-28 9 2 22 4 29 4 7 1 17 10 23 21 13 24 6 24-37 3z"
              transform="matrix(.16027 0 0 -.16027 0 374)" style="fill: inherit;"/>
        <path d="m1510 1045c-13-14-21-27-18-31 3-3 16 9 28 25 26 37 22 40-10 6z"
              transform="matrix(.16027 0 0 -.16027 0 374)" style="fill: inherit;"/>
        <path d="m2138 1063c7-3 16-2 19 1 4 3-2 6-13 5-11 0-14-3-6-6z" transform="matrix(.16027 0 0 -.16027 0 374)"
              style="fill: inherit;"/>
        <path d="m1610 1009c-47-55-47-54-42-134l5-70 11 45c7 25 9 49 5 54-11 13 19 89 47 119 13 15 21 27 17 27s-24-19-43-41z"
              transform="matrix(.16027 0 0 -.16027 0 374)" style="fill: inherit;"/>
        <path d="m2090 1034c-19-7-52-13-73-13-24-1-36-5-32-11 10-17 118 5 136 26 6 8 10 13 8 13-2-1-20-7-39-15z"
              transform="matrix(.16027 0 0 -.16027 0 374)" style="fill: inherit;"/>
        <path d="m2412 1043c-39-5-33-23 9-23 19 0 29 5 29 15 0 8-1 14-2 13-2 0-18-3-36-5z"
              transform="matrix(.16027 0 0 -.16027 0 374)" style="fill: inherit;"/>
        <path d="m2471 1019c-18-16-30-33-27-36 4-4 21 7 38 25 42 41 32 51-11 11z"
              transform="matrix(.16027 0 0 -.16027 0 374)" style="fill: inherit;"/>
        <path d="m1021 1024c-18-8-31-17-29-20 7-7 55 13 63 25 7 13 9 13-34-5z"
              transform="matrix(.16027 0 0 -.16027 0 374)" style="fill: inherit;"/>
        <path d="m2132 1016c-36-25-56-44-33-31 8 4 32 10 55 12 23 3 46 10 51 15 7 7 2 8-14 3-20-6-23-4-18 9 8 22-2 20-41-8z"
              transform="matrix(.16027 0 0 -.16027 0 374)" style="fill: inherit;"/>
        <path d="m880 1018c-19-5-65-8-101-6-47 2-63 0-55-8 17-18 206-3 206 16 0 12-4 11-50-2z"
              transform="matrix(.16027 0 0 -.16027 0 374)" style="fill: inherit;"/>
        <path d="m495 1010c3-5 8-10 11-10 2 0 4 5 4 10 0 6-5 10-11 10-5 0-7-4-4-10z"
              transform="matrix(.16027 0 0 -.16027 0 374)" style="fill: inherit;"/>
        <path d="m1390 1011c0-5-7-17-16-26s-14-18-12-20c3-3 15 6 27 19 14 15 19 26 12 31-6 3-11 2-11-4z"
              transform="matrix(.16027 0 0 -.16027 0 374)" style="fill: inherit;"/>
        <path d="m2040 990c-8-5-25-10-37-10-13 0-23-4-23-10 0-5 6-10 13-9 20 1 93 37 77 38-8 0-22-4-30-9z"
              transform="matrix(.16027 0 0 -.16027 0 374)" style="fill: inherit;"/>
        <path d="m1730 970c-6-11-8-20-6-20 3 0 10 9 16 20s8 20 6 20c-3 0-10-9-16-20z"
              transform="matrix(.16027 0 0 -.16027 0 374)" style="fill: inherit;"/>
        <path d="m920 958c0-5 6-8 13-5 6 2 25-2 40-10 16-8 31-12 34-9 7 6-43 29-69 31-10 1-18-2-18-7z"
              transform="matrix(.16027 0 0 -.16027 0 374)" style="fill: inherit;"/>
        <path d="m2405 960c-4-6-3-10 2-9 22 4 44-2 38-10-3-5-1-12 5-16 11-7 13 5 4 29-7 18-39 22-49 6z"
              transform="matrix(.16027 0 0 -.16027 0 374)" style="fill: inherit;"/>
        <path d="m810 930c0-12 8-12 35 0 18 8 17 9-7 9-16 1-28-3-28-9z" transform="matrix(.16027 0 0 -.16027 0 374)"
              style="fill: inherit;"/>
        <path d="m2385 930c3-4 2-10-2-13-5-2-2-2 5 0 8 1 21 3 29 3 22 0 11 10-16 15-12 2-19 0-16-5z"
              transform="matrix(.16027 0 0 -.16027 0 374)" style="fill: inherit;"/>
        <path d="m2140 919c0-5 5-7 10-4 6 3 10 8 10 11 0 2-4 4-10 4-5 0-10-5-10-11z"
              transform="matrix(.16027 0 0 -.16027 0 374)" style="fill: inherit;"/>
        <path d="m2374 884c-18-14-18-15 4-4 12 6 22 13 22 15 0 8-5 6-26-11z"
              transform="matrix(.16027 0 0 -.16027 0 374)" style="fill: inherit;"/>
        <path d="m1197 866c-4-10-1-13 9-9 15 6 19 23 5 23-5 0-11-7-14-14z" transform="matrix(.16027 0 0 -.16027 0 374)"
              style="fill: inherit;"/>
        <path d="m1100 832c0-6-6-10-12-8-7 1-10 1-5-1 4-3 5-9 1-14-3-5-1-9 4-9 11 0 25 30 17 38-3 3-5 0-5-6z"
              transform="matrix(.16027 0 0 -.16027 0 374)" style="fill: inherit;"/>
        <path d="m2340 830c-11-7-11-10-2-10 8 0 10-5 6-12s3-4 17 7c13 11 26 21 28 22 2 2-4 3-15 3-10 0-26-5-34-10z"
              transform="matrix(.16027 0 0 -.16027 0 374)" style="fill: inherit;"/>
        <path d="m453 800c2-14 8-23 13-21 10 4 7 22-7 36-6 6-8 1-6-15z" transform="matrix(.16027 0 0 -.16027 0 374)"
              style="fill: inherit;"/>
        <path d="m1059 770c-13-10-19-19-13-20 6 0 19 9 29 20 23 26 14 26-16 0z"
              transform="matrix(.16027 0 0 -.16027 0 374)" style="fill: inherit;"/>
        <path d="m2270 699c0-5 5-7 10-4 6 3 10 8 10 11 0 2-4 4-10 4-5 0-10-5-10-11z"
              transform="matrix(.16027 0 0 -.16027 0 374)" style="fill: inherit;"/>
        <path d="m1910 242c0-12 35-22 79-22 45 0 36 7-17 14-23 3-47 8-52 11-6 3-10 2-10-3z"
              transform="matrix(.16027 0 0 -.16027 0 374)" style="fill: inherit;"/>
        <path d="m2445 235c-16-9-21-12-10-9 38 13 125 12 133-2 8-13 172-25 172-11 0 4-31 7-69 7-46 0-70 4-74 13-7 18-116 20-152 2z"
              transform="matrix(.16027 0 0 -.16027 0 374)" style="fill: inherit;"/>
        <path d="m1775 230c-17-6-15-8 13-12 17-2 32-1 32 3 0 12-24 17-45 9z"
              transform="matrix(.16027 0 0 -.16027 0 374)" style="fill: inherit;"/>
        <path d="m1855 230c-3-5-1-10 4-10 6 0 11 5 11 10 0 6-2 10-4 10-3 0-8-4-11-10z"
              transform="matrix(.16027 0 0 -.16027 0 374)" style="fill: inherit;"/>
        <path d="m1533 205c-15-13-23-25-18-25 52-6 93-6 110 1 23 9 21 10-18 13-46 5-43 16 4 17 34 0 39 2 24 9-37 16-73 10-102-15z"
              transform="matrix(.16027 0 0 -.16027 0 374)" style="fill: inherit;"/>
        <path d="m1720 220c8-5 20-10 25-10 6 0 3 5-5 10s-19 10-25 10c-5 0-3-5 5-10z"
              transform="matrix(.16027 0 0 -.16027 0 374)" style="fill: inherit;"/>
        <path d="m1668 213c6-2 18-2 25 0 6 3 1 5-13 5s-19-2-12-5z" transform="matrix(.16027 0 0 -.16027 0 374)"
              style="fill: inherit;"/>
        <path d="m220 201c0-4 18-7 40-7 21 0 37 3 34 7-6 10-74 9-74 0z" transform="matrix(.16027 0 0 -.16027 0 374)"
              style="fill: inherit;"/>
        <path d="m320 200c8-5 22-10 30-10 13 0 13 1 0 10-8 5-22 10-30 10-13 0-13-1 0-10z"
              transform="matrix(.16027 0 0 -.16027 0 374)" style="fill: inherit;"/>
        <path d="m378 198c5-5 16-8 23-6 8 3 3 7-10 11-17 4-21 3-13-5z" transform="matrix(.16027 0 0 -.16027 0 374)"
              style="fill: inherit;"/>
        <path d="m424 198c-2-3 2-9 8-11 7-3 1-6-14-7-16-2-31-3-35-4-5-1-38-6-76-10-40-4-65-12-61-17 3-6 12-8 20-5 14 5 131 19 172 20 14 0 21 5 18 13-4 10 8 13 46 13 28 0 49 3 45 6-8 8-118 10-123 2z"
              transform="matrix(.16027 0 0 -.16027 0 374)" style="fill: inherit;"/>
        <path d="m1080 189c0-8 36-19 63-19 10 0 16 4 13 9-7 11-76 20-76 10z"
              transform="matrix(.16027 0 0 -.16027 0 374)" style="fill: inherit;"/>
        <path d="m1344 188c-3-5 12-9 33-9 21-1 55-3 76-5 25-2 37 1 35 8-5 13-137 18-144 6z"
              transform="matrix(.16027 0 0 -.16027 0 374)" style="fill: inherit;"/>
        <path d="m1880 196c0-2 14-6 30-8 17-3 30-1 30 4 0 4-13 8-30 8-16 0-30-2-30-4z"
              transform="matrix(.16027 0 0 -.16027 0 374)" style="fill: inherit;"/>
        <path d="m1963 193c9-2 25-2 35 0 9 3 1 5-18 5s-27-2-17-5z" transform="matrix(.16027 0 0 -.16027 0 374)"
              style="fill: inherit;"/>
        <path d="m2048 193c6-2 18-2 25 0 6 3 1 5-13 5s-19-2-12-5z" transform="matrix(.16027 0 0 -.16027 0 374)"
              style="fill: inherit;"/>
        <path d="m2150 196c0-2 7-7 16-10 8-3 12-2 9 4-6 10-25 14-25 6z" transform="matrix(.16027 0 0 -.16027 0 374)"
              style="fill: inherit;"/>
        <path d="m2194 189c-3-5 6-9 20-9 31 0 34 6 6 13-11 3-23 1-26-4z" transform="matrix(.16027 0 0 -.16027 0 374)"
              style="fill: inherit;"/>
        <path d="m2341 196c7-7 300-15 295-8-2 4-71 8-152 10-82 2-146 1-143-2z"
              transform="matrix(.16027 0 0 -.16027 0 374)" style="fill: inherit;"/>
        <path d="m2650 191c0-4 17-8 38-9 20-2 46-5 57-8 14-4 17-3 10 4-11 13-105 24-105 13z"
              transform="matrix(.16027 0 0 -.16027 0 374)" style="fill: inherit;"/>
        <path d="m1038 183c6-2 18-2 25 0 6 3 1 5-13 5s-19-2-12-5z" transform="matrix(.16027 0 0 -.16027 0 374)"
              style="fill: inherit;"/>
        <path d="m1290 186c0-9 30-14 35-6 4 6-3 10-14 10-12 0-21-2-21-4z" transform="matrix(.16027 0 0 -.16027 0 374)"
              style="fill: inherit;"/>
        <path d="m1670 181c0-4 24-8 52-10 29-1 50 0 48 2-9 8-100 15-100 8z" transform="matrix(.16027 0 0 -.16027 0 374)"
              style="fill: inherit;"/>
        <path d="m532 170c2-6 7-11 11-11 4 1 24 1 44 1 47 0 36 11-18 17-29 4-40 2-37-7z"
              transform="matrix(.16027 0 0 -.16027 0 374)" style="fill: inherit;"/>
        <path d="m1794 173c10-11 137-13 130-2-3 5-35 9-71 9-37 0-63-3-59-7z"
              transform="matrix(.16027 0 0 -.16027 0 374)" style="fill: inherit;"/>
        <path d="m1963 163c7-7 55-11 150-15 37-1 67-5 67-9s-25-7-55-7c-30 1-58-2-62-5-3-4 36-7 88-7 67 0 90 3 79 11-10 7 33 9 142 7 91-2 153 1 148 6s-87 10-182 12c-95 1-220 5-277 8s-101 3-98-1z"
              transform="matrix(.16027 0 0 -.16027 0 374)" style="fill: inherit;"/>
        <path d="m450 149c-25-4-54-5-65-2-15 4-17 2-9-7 13-13 191-20 220-9 13 5 6 8-23 10-50 2-55 3-68 10-5 3-30 2-55-2z"
              transform="matrix(.16027 0 0 -.16027 0 374)" style="fill: inherit;"/>
        <path d="m1055 150c-6-10 77-17 107-9 17 5 11 7-22 9-25 1-53 3-62 5-10 2-20 0-23-5z"
              transform="matrix(.16027 0 0 -.16027 0 374)" style="fill: inherit;"/>
        <path d="m1290 152c0-5 28-10 62-11s59 2 55 5c-11 11-117 16-117 6z" transform="matrix(.16027 0 0 -.16027 0 374)"
              style="fill: inherit;"/>
        <path d="m1520 142c-15-5-30-21-30-33 0-3 17-6 38-6 20-1 78-3 127-6 56-4 82-2 68 3-12 5-51 10-87 11s-71 6-78 11 26 7 80 4c50-2 92 0 92 3 0 4-35 8-77 9-43 1-87 4-98 6s-27 1-35-2z"
              transform="matrix(.16027 0 0 -.16027 0 374)" style="fill: inherit;"/>
        <path d="m2585 140c-19-8-19-9 3-9 12-1 22 4 22 9 0 6-1 10-2 9-2 0-12-4-23-9z"
              transform="matrix(.16027 0 0 -.16027 0 374)" style="fill: inherit;"/>
        <path d="m2709 139c-10-6-4-9 19-9 17 0 32 2 32 4 0 9-39 13-51 5z" transform="matrix(.16027 0 0 -.16027 0 374)"
              style="fill: inherit;"/>
        <path d="m620 130c0-5 5-10 10-10 6 0 10 5 10 10 0 6-4 10-10 10-5 0-10-4-10-10z"
              transform="matrix(.16027 0 0 -.16027 0 374)" style="fill: inherit;"/>
        <path d="m1745 130c-3-6 1-7 9-4 18 7 21 14 7 14-6 0-13-4-16-10z" transform="matrix(.16027 0 0 -.16027 0 374)"
              style="fill: inherit;"/>
        <path d="m1790 133c0-5 24-7 52-5 89 5 97 9 21 11-40 0-73-2-73-6z" transform="matrix(.16027 0 0 -.16027 0 374)"
              style="fill: inherit;"/>
        <path d="m1973 133c9-2 23-2 30 0 6 3-1 5-18 5-16 0-22-2-12-5z" transform="matrix(.16027 0 0 -.16027 0 374)"
              style="fill: inherit;"/>
        <path d="m718 123c32-13 6-22-58-20-39 1-70-1-70-5 0-5 44-8 98-7 53 0 91 3 85 6-7 2-13 11-13 19 0 9-10 14-27 13-16 0-22-3-15-6z"
              transform="matrix(.16027 0 0 -.16027 0 374)" style="fill: inherit;"/>
        <path d="m1400 108c0-4 17-8 37-8s33 3 30 7c-10 10-67 11-67 1z" transform="matrix(.16027 0 0 -.16027 0 374)"
              style="fill: inherit;"/>
        <path d="m2310 108c0-4 14-8 30-8 17 0 30 2 30 4s-13 6-30 8c-16 3-30 1-30-4z"
              transform="matrix(.16027 0 0 -.16027 0 374)" style="fill: inherit;"/>
        <path d="m473 102c-7-4 12-9 42-10s55 2 55 6c0 11-81 14-97 4z" transform="matrix(.16027 0 0 -.16027 0 374)"
              style="fill: inherit;"/>
        <path d="m1804 103c10-10 46-11 46-1 0 4-12 8-27 8-14 0-23-3-19-7z" transform="matrix(.16027 0 0 -.16027 0 374)"
              style="fill: inherit;"/>
        <path d="m1860 98c0-5 39-7 88-7 91 2 81 6-26 11-34 2-62 0-62-4z" transform="matrix(.16027 0 0 -.16027 0 374)"
              style="fill: inherit;"/>
        <path d="m2095 100c-17-6-16-7 6-12 14-2 34-2 44 2 17 6 16 7-6 12-14 2-34 2-44-2z"
              transform="matrix(.16027 0 0 -.16027 0 374)" style="fill: inherit;"/>
        <path d="m2390 101c19-12 262-23 255-12-2 5-48 9-102 10-53 1-112 4-132 7-25 3-31 2-21-5z"
              transform="matrix(.16027 0 0 -.16027 0 374)" style="fill: inherit;"/>
        <path d="m2697 102c-9-2-15-8-12-13 8-12 75-12 75 0 0 10-38 18-63 13z"
              transform="matrix(.16027 0 0 -.16027 0 374)" style="fill: inherit;"/>
        <path d="m2174 92c4-3 14-7 22-8 9-1 13 0 10 4-4 3-14 7-22 8-9 1-13 0-10-4z"
              transform="matrix(.16027 0 0 -.16027 0 374)" style="fill: inherit;"/>
        <path d="m2224 88c-3-4 15-8 40-8s46 2 46 4c0 8-82 11-86 4z" transform="matrix(.16027 0 0 -.16027 0 374)"
              style="fill: inherit;"/>
        <path d="m2320 79c0-5 5-7 10-4 6 3 10 8 10 11 0 2-4 4-10 4-5 0-10-5-10-11z"
              transform="matrix(.16027 0 0 -.16027 0 374)" style="fill: inherit;"/>
        <path d="m2350 79c0-5 11-9 25-9s25 2 25 4-11 6-25 8c-14 3-25 1-25-3z"
              transform="matrix(.16027 0 0 -.16027 0 374)" style="fill: inherit;"/>
    </g>
</svg>
